<svg width="35" height="33" viewBox="0 0 35 33" fill="none" xmlns="http://www.w3.org/2000/svg">
<path d="M34.6133 7.7V0H26.68V2.75H8.54668V0H0.613342V7.7H3.44668V25.3H0.613342V33H8.54668V30.25H26.68V33H34.6133V25.3H31.78V7.7H34.6133ZM28.9467 2.2H32.3467V5.5H28.9467V2.2ZM2.88001 5.5V2.2H6.28001V5.5H2.88001ZM6.28001 30.8H2.88001V27.5H6.28001V30.8ZM32.3467 27.5V30.8H28.9467V27.5H32.3467ZM29.5133 25.3H26.68V28.05H8.54668V25.3H5.71334V7.7H8.54668V4.95H26.68V7.7H29.5133V25.3Z" fill="#F3CD03"/>
<path d="M16.4583 10.891L12.6653 20.5H14.7823L15.5133 18.648H19.7143L20.4453 20.5H22.5623L18.7693 10.891H16.4583ZM16.2893 16.679L17.6133 13.326L18.9373 16.679H16.2893Z" fill="#F3CD03"/>
</svg>
