<svg width="139" height="51" viewBox="0 0 139 51" fill="none" xmlns="http://www.w3.org/2000/svg">
<path d="M11.736 38.396C9.744 38.396 7.836 38.156 6.012 37.676C4.188 37.172 2.688 36.512 1.512 35.696L3.348 30.548C4.452 31.292 5.748 31.88 7.236 32.312C8.724 32.744 10.224 32.96 11.736 32.96C13.32 32.96 14.424 32.756 15.048 32.348C15.696 31.916 16.02 31.388 16.02 30.764C16.02 30.212 15.792 29.768 15.336 29.432C14.904 29.096 14.124 28.808 12.996 28.568L8.784 27.668C4.224 26.684 1.944 24.296 1.944 20.504C1.944 18.848 2.388 17.396 3.276 16.148C4.188 14.9 5.448 13.94 7.056 13.268C8.664 12.572 10.536 12.224 12.672 12.224C14.424 12.224 16.08 12.476 17.64 12.98C19.224 13.46 20.508 14.12 21.492 14.96L19.656 19.784C18.744 19.112 17.688 18.596 16.488 18.236C15.288 17.852 13.992 17.66 12.6 17.66C11.256 17.66 10.224 17.9 9.504 18.38C8.784 18.836 8.424 19.436 8.424 20.18C8.424 20.708 8.64 21.14 9.072 21.476C9.504 21.812 10.272 22.1 11.376 22.34L15.552 23.24C20.184 24.224 22.5 26.552 22.5 30.224C22.5 31.88 22.056 33.32 21.168 34.544C20.28 35.768 19.032 36.716 17.424 37.388C15.816 38.06 13.92 38.396 11.736 38.396ZM25.9532 38V12.62H32.5772V38H25.9532ZM50.3281 38.396C47.4241 38.396 44.9521 37.856 42.9121 36.776C40.8961 35.696 39.3601 34.184 38.3041 32.24C37.2481 30.296 36.7201 28.028 36.7201 25.436C36.7201 22.748 37.2721 20.42 38.3761 18.452C39.5041 16.46 41.1121 14.924 43.2001 13.844C45.2881 12.764 47.8081 12.224 50.7601 12.224C52.5361 12.224 54.2281 12.464 55.8361 12.944C57.4441 13.4 58.7521 14.024 59.7601 14.816L57.7441 19.928C56.6401 19.208 55.5241 18.692 54.3961 18.38C53.2681 18.044 52.0681 17.876 50.7961 17.876C48.3721 17.876 46.5601 18.524 45.3601 19.82C44.1841 21.116 43.5961 22.988 43.5961 25.436C43.5961 27.884 44.1961 29.732 45.3961 30.98C46.5961 32.228 48.3721 32.852 50.7241 32.852C51.8281 32.852 53.0641 32.684 54.4321 32.348V28.352H49.3561V23.708H59.8321V36.452C58.4881 37.076 56.9881 37.556 55.3321 37.892C53.6761 38.228 52.0081 38.396 50.3281 38.396ZM64.4626 38V12.62H69.3226L80.9866 27.164V12.62H87.1066V38H82.2826L70.6186 23.456V38H64.4626ZM119.601 38V12.62H126.225V32.492H137.529V38H119.601Z" fill="black"/>
<rect width="30" height="8" rx="4" fill="#E637B7"/>
<path d="M101.975 12.0666L119.36 36.8958L89.1649 39.5376L101.975 12.0666Z" fill="#43B6FF"/>
</svg>
